<?xml version="1.0" standalone="no"?>
<!DOCTYPE svg PUBLIC "-//W3C//DTD SVG 20010904//EN"
 "http://www.w3.org/TR/2001/REC-SVG-20010904/DTD/svg10.dtd">
<svg version="1.0" xmlns="http://www.w3.org/2000/svg"
 width="1024.000000pt" height="1024.000000pt" viewBox="0 0 1024.000000 1024.000000"
 preserveAspectRatio="xMidYMid meet">

<g transform="translate(0.000000,1024.000000) scale(0.100000,-0.100000)"
fill="#000000" stroke="none">
<path d="M4820 8512 c-42 -23 -70 -73 -70 -127 0 -22 18 -92 40 -155 52 -147
66 -231 81 -470 16 -267 5 -1050 -15 -1066 -15 -10 -630 -80 -1006 -113 -118
-11 -348 -27 -510 -35 -438 -24 -475 -28 -505 -56 -14 -13 -25 -32 -25 -42 0
-11 26 -46 57 -79 102 -107 247 -203 386 -256 110 -41 250 -38 507 11 275 52
438 82 645 115 224 36 265 41 265 31 0 -11 -110 -207 -182 -325 -142 -233
-321 -496 -519 -760 -489 -655 -1162 -1333 -1784 -1796 -292 -218 -299 -224
-279 -256 61 -96 448 38 864 299 369 232 673 478 1010 817 356 359 623 688
994 1224 37 53 72 97 78 97 8 0 9 -111 5 -402 -11 -733 -55 -1394 -133 -2008
-35 -278 -41 -443 -20 -550 34 -164 154 -477 227 -590 102 -157 221 -126 313
83 39 88 85 242 103 345 20 120 21 311 9 2060 -6 755 -6 1262 0 1262 5 0 22
-21 38 -48 87 -140 531 -804 651 -972 431 -606 806 -1053 956 -1143 120 -71
176 -82 404 -81 256 2 669 51 844 100 155 44 202 117 122 186 -22 19 -181 104
-353 191 -481 241 -779 419 -1093 654 -449 337 -926 825 -1276 1306 -113 156
-252 368 -245 375 3 2 110 14 238 25 206 19 310 21 898 22 366 0 679 5 695 9
89 25 124 61 125 125 0 63 -32 121 -100 184 -72 67 -151 116 -252 156 -142 57
-190 66 -353 65 -130 -1 -190 -8 -460 -52 -330 -54 -530 -84 -712 -105 l-113
-14 0 58 c0 77 26 402 46 564 22 187 58 372 99 509 61 207 44 297 -77 398 -94
79 -262 174 -396 224 -78 30 -172 32 -222 6z"/>
</g>
</svg>
