<?xml version="1.0" standalone="no"?>
<!DOCTYPE svg PUBLIC "-//W3C//DTD SVG 20010904//EN"
 "http://www.w3.org/TR/2001/REC-SVG-20010904/DTD/svg10.dtd">
<svg version="1.0" xmlns="http://www.w3.org/2000/svg"
 width="1024.000000pt" height="1024.000000pt" viewBox="0 0 1024.000000 1024.000000"
 preserveAspectRatio="xMidYMid meet">

<g transform="translate(0.000000,1024.000000) scale(0.100000,-0.100000)"
fill="#000000" stroke="none">
<path d="M4855 8576 c-34 -15 -55 -52 -55 -96 0 -16 16 -76 36 -132 47 -136
61 -215 75 -410 10 -135 7 -570 -5 -900 -1 -16 -6 -28 -11 -28 -6 0 -170 -18
-365 -40 -527 -60 -740 -79 -1047 -90 -153 -6 -288 -12 -300 -15 -34 -8 -47
-39 -29 -73 33 -63 181 -173 320 -238 151 -69 220 -67 711 21 339 61 548 95
553 90 11 -11 -287 -487 -421 -675 -475 -660 -978 -1192 -1582 -1674 -88 -70
-177 -141 -197 -157 -40 -32 -51 -72 -22 -83 149 -57 694 237 1164 630 367
306 864 874 1161 1326 33 51 63 95 66 98 13 12 -24 -821 -53 -1170 -14 -181
-44 -459 -64 -597 -18 -133 -23 -285 -10 -348 37 -182 131 -397 207 -473 35
-35 49 -42 80 -42 78 0 131 60 180 203 58 171 59 216 52 1645 -3 535 -2 969 2
965 4 -5 93 -136 197 -293 207 -310 219 -327 379 -547 176 -241 348 -464 487
-631 308 -369 360 -402 637 -402 260 0 764 53 864 92 71 27 85 70 36 111 -16
13 -175 97 -353 185 -434 217 -675 361 -953 570 -422 319 -841 754 -1177 1224
l-77 106 132 7 c73 3 416 10 762 14 552 7 637 10 684 25 101 33 124 85 73 167
-89 140 -307 254 -506 266 -119 7 -250 -6 -716 -72 -212 -30 -402 -57 -422
-60 -46 -6 -44 -29 -23 255 25 347 54 535 120 780 19 70 26 115 21 133 -10 42
-77 108 -169 169 -214 141 -367 198 -442 164z"/>
<path d="M2780 2360 l0 -860 190 0 190 0 0 266 0 266 77 84 c42 46 80 83 84
82 7 -3 77 -91 442 -555 l112 -142 239 -1 c189 0 236 3 229 13 -14 17 -210
256 -391 476 -84 102 -197 241 -252 307 l-99 122 21 18 c11 11 124 134 251
274 128 140 280 308 339 372 60 65 108 122 108 128 0 6 -77 10 -227 10 l-228
0 -350 -391 -350 -390 -3 391 -2 390 -190 0 -190 0 0 -860z"/>
<path d="M5385 3098 c-27 -68 -124 -316 -218 -553 -262 -664 -393 -998 -401
-1023 l-7 -22 193 0 194 0 74 190 73 190 356 0 356 0 74 -190 74 -190 198 0
c110 0 199 2 199 4 0 4 -301 752 -450 1116 -37 91 -107 263 -155 383 l-88 217
-212 0 -213 0 -47 -122z m374 -570 c63 -161 120 -307 128 -325 l13 -33 -256 0
c-240 0 -256 1 -249 18 12 29 153 401 198 519 23 62 44 113 47 113 3 0 57
-131 119 -292z"/>
<path d="M7010 2360 l0 -860 190 0 190 0 0 860 0 860 -190 0 -190 0 0 -860z"/>
</g>
</svg>
